<svg id="Layer_1" data-name="Layer 1" xmlns="http://www.w3.org/2000/svg" viewBox="0 0 427.67 42.34"><defs><style>.cls-1{fill:#fff;stroke:#231f20;stroke-miterlimit:10;}.cls-2{fill:#231f20;}</style></defs><title>dragon ball 1</title><g id="ball_7" data-name="ball 7"><circle class="cls-1" cx="406.51" cy="21.16" r="20.66"/><polygon class="cls-2" points="406.51 1.95 408.05 5.07 411.5 5.57 409.01 8.01 409.6 11.44 406.51 9.82 403.43 11.44 404.02 8.01 401.52 5.57 404.97 5.07 406.51 1.95"/><polygon class="cls-2" points="394.56 8.29 396.1 11.41 399.54 11.91 397.05 14.35 397.64 17.78 394.56 16.16 391.47 17.78 392.06 14.35 389.57 11.91 393.01 11.41 394.56 8.29"/><polygon class="cls-2" points="419.19 23.94 420.73 27.06 424.18 27.56 421.68 29.99 422.27 33.42 419.19 31.8 416.1 33.42 416.69 29.99 414.2 27.56 417.65 27.06 419.19 23.94"/><polygon class="cls-2" points="406.51 14.45 408.05 17.57 411.5 18.07 409.01 20.5 409.6 23.94 406.51 22.32 403.43 23.94 404.02 20.5 401.52 18.07 404.97 17.57 406.51 14.45"/><polygon class="cls-2" points="407.96 30.69 409.5 33.81 412.95 34.32 410.45 36.75 411.04 40.18 407.96 38.56 404.88 40.18 405.47 36.75 402.97 34.32 406.42 33.81 407.96 30.69"/><polygon class="cls-2" points="394.56 23.94 396.1 27.06 399.54 27.56 397.05 29.99 397.64 33.42 394.56 31.8 391.47 33.42 392.06 29.99 389.57 27.56 393.01 27.06 394.56 23.94"/><polygon class="cls-2" points="419.19 9.71 420.73 12.83 424.18 13.33 421.68 15.76 422.27 19.19 419.19 17.57 416.1 19.19 416.69 15.76 414.2 13.33 417.65 12.83 419.19 9.71"/></g><g id="ball_6" data-name="ball 6"><circle class="cls-1" cx="342.69" cy="21.16" r="20.66"/><polygon class="cls-2" points="342.69 6.69 344.23 9.82 347.68 10.32 345.19 12.75 345.77 16.18 342.69 14.56 339.61 16.18 340.2 12.75 337.7 10.32 341.15 9.82 342.69 6.69"/><polygon class="cls-2" points="330.73 13.04 332.27 16.16 335.72 16.66 333.23 19.09 333.82 22.52 330.73 20.9 327.65 22.52 328.24 19.09 325.75 16.66 329.19 16.16 330.73 13.04"/><polygon class="cls-2" points="350.38 27.27 351.92 30.39 355.37 30.89 352.87 33.32 353.46 36.76 350.38 35.13 347.3 36.76 347.88 33.32 345.39 30.89 348.84 30.39 350.38 27.27"/><polygon class="cls-2" points="342.69 17.78 344.23 20.9 347.68 21.4 345.19 23.83 345.77 27.27 342.69 25.65 339.61 27.27 340.2 23.83 337.7 21.4 341.15 20.9 342.69 17.78"/><polygon class="cls-2" points="335.72 27.27 337.26 30.39 340.71 30.89 338.22 33.32 338.81 36.76 335.72 35.13 332.64 36.76 333.23 33.32 330.73 30.89 334.18 30.39 335.72 27.27"/><polygon class="cls-2" points="355.37 11.7 356.91 14.82 360.35 15.32 357.86 17.75 358.45 21.19 355.37 19.57 352.28 21.19 352.87 17.75 350.38 15.32 353.82 14.82 355.37 11.7"/></g><g id="ball_5" data-name="ball 5"><circle class="cls-1" cx="281.88" cy="21.16" r="20.66"/><polygon class="cls-2" points="281.88 6.69 283.42 9.82 286.87 10.32 284.37 12.75 284.96 16.18 281.88 14.56 278.8 16.18 279.39 12.75 276.89 10.32 280.34 9.82 281.88 6.69"/><polygon class="cls-2" points="269.92 13.04 271.46 16.16 274.91 16.66 272.42 19.09 273.01 22.52 269.92 20.9 266.84 22.52 267.43 19.09 264.94 16.66 268.38 16.16 269.92 13.04"/><polygon class="cls-2" points="287.99 25.95 289.53 29.07 292.98 29.57 290.49 32 291.07 35.44 287.99 33.81 284.91 35.44 285.5 32 283 29.57 286.45 29.07 287.99 25.95"/><polygon class="cls-2" points="276.89 25.95 278.43 29.07 281.88 29.57 279.39 32 279.98 35.44 276.89 33.81 273.81 35.44 274.4 32 271.9 29.57 275.35 29.07 276.89 25.95"/><polygon class="cls-2" points="294.56 11.7 296.1 14.82 299.54 15.32 297.05 17.75 297.64 21.19 294.56 19.57 291.47 21.19 292.06 17.75 289.57 15.32 293.01 14.82 294.56 11.7"/></g><g id="ball_4" data-name="ball 4"><circle class="cls-1" cx="227.52" cy="21.16" r="20.66"/><polygon class="cls-2" points="219.71 4.96 221.25 8.09 224.7 8.59 222.21 11.02 222.79 14.45 219.71 12.83 216.63 14.45 217.22 11.02 214.72 8.59 218.17 8.09 219.71 4.96"/><polygon class="cls-2" points="219.71 22.52 221.25 25.65 224.7 26.15 222.21 28.58 222.79 32.01 219.71 30.39 216.63 32.01 217.22 28.58 214.72 26.15 218.17 25.65 219.71 22.52"/><polygon class="cls-2" points="237.65 25.91 239.19 29.03 242.64 29.53 240.14 31.96 240.73 35.39 237.65 33.77 234.57 35.39 235.16 31.96 232.66 29.53 236.11 29.03 237.65 25.91"/><polygon class="cls-2" points="238.92 11.69 240.46 14.81 243.91 15.31 241.42 17.74 242 21.17 238.92 19.55 235.84 21.17 236.43 17.74 233.93 15.31 237.38 14.81 238.92 11.69"/></g><g id="ball_3" data-name="ball 3"><circle class="cls-1" cx="158.65" cy="21.16" r="20.66"/><polygon class="cls-2" points="151.33 4.96 152.87 8.09 156.32 8.59 153.83 11.02 154.41 14.45 151.33 12.83 148.25 14.45 148.84 11.02 146.34 8.59 149.79 8.09 151.33 4.96"/><polygon class="cls-2" points="155.09 25.91 156.63 29.03 160.08 29.53 157.59 31.96 158.17 35.39 155.09 33.77 152.01 35.39 152.6 31.96 150.1 29.53 153.55 29.03 155.09 25.91"/><polygon class="cls-2" points="168.63 16.44 170.17 19.57 173.62 20.07 171.12 22.5 171.71 25.93 168.63 24.31 165.54 25.93 166.13 22.5 163.64 20.07 167.09 19.57 168.63 16.44"/></g><g id="ball_2" data-name="ball 2"><circle class="cls-1" cx="91.29" cy="21.17" r="20.66"/><polygon class="cls-2" points="83.97 11.7 85.51 14.82 88.96 15.32 86.47 17.75 87.06 21.19 83.97 19.57 80.89 21.19 81.48 17.75 78.98 15.32 82.43 14.82 83.97 11.7"/><polygon class="cls-2" points="98.61 21.16 100.15 24.28 103.6 24.79 101.1 27.22 101.69 30.65 98.61 29.03 95.53 30.65 96.12 27.22 93.62 24.79 97.07 24.28 98.61 21.16"/></g><g id="ball_1" data-name="ball 1"><circle class="cls-1" cx="21.16" cy="21.17" r="20.66"/><polygon class="cls-2" points="21.16 16.43 22.7 19.55 26.15 20.05 23.66 22.49 24.24 25.92 21.16 24.3 18.08 25.92 18.67 22.49 16.17 20.05 19.62 19.55 21.16 16.43"/></g></svg>