<svg viewBox="0 0 512 512.00004" xmlns="http://www.w3.org/2000/svg"><path d="m442.390625 34.648438c-9.339844 0-18.121094 3.636718-24.722656 10.238281-6.605469 6.605469-10.242188 15.386719-10.242188 24.722656 0 9.339844 3.636719 18.121094 10.238281 24.726563 6.605469 6.601562 15.386719 10.238281 24.726563 10.238281s18.117187-3.636719 24.722656-10.238281c13.632813-13.632813 13.632813-35.816407 0-49.449219-6.605469-6.601563-15.386719-10.238281-24.722656-10.238281zm14.113281 49.078124c-3.769531 3.773438-8.78125 5.847657-14.113281 5.847657s-10.347656-2.074219-14.117187-5.847657c-3.769532-3.769531-5.847657-8.78125-5.847657-14.113281s2.078125-10.347656 5.847657-14.117187c3.773437-3.773438 8.785156-5.847656 14.117187-5.847656s10.34375 2.078124 14.113281 5.847656c7.785156 7.78125 7.785156 20.449218 0 28.230468zm0 0"/><path d="m491.613281 20.386719c-13.148437-13.144531-30.628906-20.386719-49.222656-20.386719s-36.074219 7.242188-49.222656 20.386719c-13.148438 13.148437-20.390625 30.628906-20.390625 49.226562 0 6.730469.960937 13.308594 2.796875 19.597657l-34.921875 34.921874c-.003906 0-.007813.003907-.007813.007813l-45.410156 45.40625-138.074219 40.28125c-3.488281 1.019531-6.730468 2.675781-9.582031 4.84375-.140625.105469-.28125.210937-.414063.328125-3.324218 2.617188-6.089843 5.933594-8.042968 9.753906l-137.792969 269.667969c-2.382813 4.667969-1.503906 10.296875 2.195313 14.011719.007812.007812.011718.015625.019531.023437.167969.167969.34375.320313.523437.472657 2.253906 2.007812 5.109375 3.070312 8.007813 3.070312 1.867187 0 3.753906-.433594 5.503906-1.328125l269.671875-137.792969c3.8125-1.953125 7.125-4.714844 9.738281-8.03125.128907-.148437.246094-.300781.359375-.457031 2.15625-2.84375 3.808594-6.078125 4.824219-9.554687l40.28125-138.074219 10.054687-10.054688c.003907-.003906.007813-.007812.007813-.007812l22.96875-22.96875c.007813-.007813.015625-.015625.023437-.027344l22.964844-22.960937s.003906-.003907.003906-.003907l24.3125-24.3125c6.289063 1.835938 12.871094 2.796875 19.601563 2.796875 18.59375 0 36.074219-7.242187 49.222656-20.390625 27.140625-27.140625 27.140625-71.300781 0-98.445312zm-119.273437 145.277343-17.359375-34.644531 11.804687-11.804687 17.355469 34.644531zm-22.984375 22.980469-17.355469-34.644531 11.804688-11.804688 17.355468 34.644532zm-13.566407 13.566407-12.992187-12.992188c-.003906-.003906-.003906-.003906-.007813-.007812 0 0 0 0-.003906-.003907l-12.996094-12.996093 11.03125-11.035157 17.359376 34.648438zm-38.769531-17.558594 9.859375 9.863281-85.21875 85.21875-56.589844-56.585937zm-144.605469 47.054687 58.636719 58.636719-21.640625 21.640625c-2.929687 2.929687-2.929687 7.675781 0 10.605469 1.464844 1.464844 3.386719 2.195312 5.304688 2.195312 1.917968 0 3.839844-.730468 5.304687-2.195312l21.640625-21.640625 58.636719 58.636719-239.808594 122.535156 139.730469-139.730469c2.929688-2.929687 2.929688-7.679687 0-10.609375-2.929688-2.925781-7.675781-2.925781-10.609375 0l-139.726563 139.730469zm136.4375 115.222657-56.585937-56.585938 85.21875-85.222656 9.863281 9.859375zm106.46875-204.246094-17.359374-34.648438 3.945312-3.941406c3.046875 5.324219 6.804688 10.285156 11.257812 14.742188 4.457032 4.453124 9.417969 8.210937 14.742188 11.257812zm85.683594-34.457032c-10.3125 10.316407-24.027344 15.996094-38.613281 15.996094-6.410156 0-12.648437-1.097656-18.503906-3.199218-.304688-.140626-.613281-.261719-.929688-.359376-7.113281-2.703124-13.640625-6.894531-19.179687-12.433593-5.546875-5.546875-9.738282-12.078125-12.441406-19.195313-.09375-.3125-.214844-.617187-.351563-.914062-2.105469-5.859375-3.203125-12.097656-3.203125-18.507813 0-14.585937 5.679688-28.300781 15.996094-38.617187 10.308594-10.316406 24.023437-15.996094 38.613281-15.996094 14.585937 0 28.300781 5.679688 38.613281 15.996094 21.292969 21.292968 21.292969 55.9375 0 77.230468zm0 0"/></svg>